<?xml version="1.0" encoding="utf-8"?>
<!-- Generator: Adobe Illustrator 24.1.1, SVG Export Plug-In . SVG Version: 6.00 Build 0)  -->
<svg version="1.1" id="Warstwa_1" xmlns="http://www.w3.org/2000/svg" xmlns:xlink="http://www.w3.org/1999/xlink" x="0px" y="0px"
	 viewBox="0 0 24 24" style="enable-background:new 0 0 24 24;" xml:space="preserve">
<style type="text/css">
	.st0{fill:#F8F6F2;}
</style>
<g id="Ellipse_24" transform="translate(1458 2007)">
	<g>
		<path class="st0" d="M-1435.4-2000.7c-0.2-0.3-0.4-0.7-0.6-1c0,0,0,0,0,0c-0.2-0.3-0.4-0.6-0.7-0.9c0,0,0,0,0,0
			c-0.2-0.2-0.3-0.4-0.5-0.6c-0.2-0.2-0.3-0.4-0.5-0.5c-0.2-0.2-0.4-0.3-0.6-0.5c0,0,0,0,0,0c-0.3-0.2-0.6-0.5-0.9-0.7c0,0,0,0,0,0
			c-0.3-0.2-0.6-0.4-1-0.6c-1.7-0.9-3.7-1.4-5.7-1.4s-4,0.5-5.7,1.4c-0.3,0.2-0.7,0.4-1,0.6c0,0,0,0,0,0c-0.3,0.2-0.6,0.4-0.9,0.7
			c0,0,0,0,0,0c-0.2,0.2-0.4,0.3-0.6,0.5c-0.2,0.2-0.4,0.3-0.5,0.5c-0.2,0.2-0.3,0.4-0.5,0.6c0,0,0,0,0,0c-0.2,0.3-0.5,0.6-0.7,0.9
			c0,0,0,0,0,0c-0.2,0.3-0.4,0.6-0.6,1c-0.9,1.7-1.4,3.7-1.4,5.7s0.5,4,1.4,5.7c0.2,0.3,0.4,0.7,0.6,1c0,0,0,0,0,0
			c0.2,0.3,0.4,0.6,0.7,0.9c0,0,0,0,0,0c0.2,0.2,0.3,0.4,0.5,0.6c0.2,0.2,0.3,0.4,0.5,0.5c0.2,0.2,0.4,0.3,0.6,0.5c0,0,0,0,0,0
			c0.3,0.2,0.6,0.5,0.9,0.7c0,0,0,0,0,0c0.3,0.2,0.6,0.4,1,0.6c1.7,0.9,3.7,1.4,5.7,1.4s4-0.5,5.7-1.4c0.3-0.2,0.7-0.4,1-0.6
			c0,0,0,0,0,0c0.3-0.2,0.6-0.4,0.9-0.7c0,0,0,0,0,0c0.2-0.2,0.4-0.3,0.6-0.5c0.2-0.2,0.4-0.3,0.5-0.5c0.2-0.2,0.3-0.4,0.5-0.6
			c0,0,0,0,0,0c0.2-0.3,0.5-0.6,0.7-0.9c0,0,0,0,0,0c0.2-0.3,0.4-0.6,0.6-1c0.9-1.7,1.4-3.7,1.4-5.7S-1434.5-1999-1435.4-2000.7z
			 M-1446-1985c-5.5,0-10-4.5-10-10s4.5-10,10-10s10,4.5,10,10S-1440.5-1985-1446-1985z"/>
		<path class="st0" d="M-1442.1-1995.9c-0.2,0.1-0.3,0.1-0.5,0.1c-0.3,0-0.7-0.2-0.9-0.5l-1.4-2.5v11.3c0,0.6-0.4,1-1,1
			c-0.6,0-1-0.4-1-1v-11.3l-1.4,2.5c-0.2,0.3-0.5,0.5-0.9,0.5c-0.2,0-0.3,0-0.5-0.1c-0.5-0.3-0.6-0.9-0.4-1.4l3.3-5.7c0,0,0,0,0,0
			c0.1-0.1,0.1-0.1,0.2-0.2c0.1-0.1,0.1-0.1,0.2-0.2c0,0,0,0,0,0c0.1-0.1,0.3-0.1,0.4-0.1h0.1c0.2,0,0.3,0.1,0.5,0.1
			c0.1,0.1,0.1,0.1,0.2,0.2c0.1,0.1,0.1,0.1,0.2,0.2l0,0l3.3,5.7C-1441.5-1996.8-1441.7-1996.2-1442.1-1995.9z"/>
	</g>
</g>
</svg>
