<?xml version="1.0" standalone="no"?>
<!DOCTYPE svg PUBLIC "-//W3C//DTD SVG 20010904//EN"
 "http://www.w3.org/TR/2001/REC-SVG-20010904/DTD/svg10.dtd">
<svg version="1.0" xmlns="http://www.w3.org/2000/svg"
 width="738.000000pt" height="738.000000pt" viewBox="0 0 738.000000 738.000000"
 preserveAspectRatio="xMidYMid meet">
<metadata>
Created by potrace 1.11, written by Peter Selinger 2001-2013
</metadata>
<g transform="translate(0.000000,738.000000) scale(0.100000,-0.100000)"
fill="#000000" stroke="none">
<path d="M3517 7374 c-1 -1 -47 -5 -102 -8 -55 -3 -113 -8 -130 -11 -16 -2
-82 -12 -145 -21 -63 -9 -155 -25 -205 -36 -49 -10 -101 -21 -115 -24 -101
-19 -308 -86 -500 -161 -530 -207 -1054 -581 -1425 -1018 -33 -38 -63 -72 -66
-75 -33 -28 -270 -370 -327 -471 -92 -165 -212 -405 -212 -425 0 -3 -7 -20
-15 -37 -91 -196 -219 -678 -241 -907 -3 -25 -6 -55 -9 -68 -28 -158 -26 -664
4 -877 6 -38 13 -92 17 -120 5 -40 51 -264 68 -337 21 -84 87 -298 106 -343 4
-11 27 -69 51 -130 52 -133 167 -365 245 -495 393 -657 979 -1179 1669 -1487
96 -43 324 -131 355 -138 8 -2 37 -11 64 -20 26 -9 56 -18 65 -20 9 -2 45 -11
81 -20 36 -9 74 -19 85 -22 35 -9 208 -43 245 -49 19 -3 42 -7 50 -9 8 -2 40
-7 70 -10 30 -4 69 -8 85 -10 193 -24 646 -25 795 -1 23 4 81 11 170 22 19 2
46 6 60 9 14 3 36 7 49 10 82 15 224 47 271 60 30 9 63 18 73 20 10 2 69 20
130 40 942 308 1732 995 2165 1883 103 211 179 409 236 615 74 266 106 448
132 752 7 80 7 447 0 510 -3 28 -8 79 -11 115 -27 331 -130 734 -275 1075 -77
183 -228 461 -322 598 -39 55 -152 212 -158 217 -3 3 -19 23 -35 45 -82 110
-295 333 -444 465 -363 320 -811 577 -1284 734 -104 34 -395 109 -467 120 -19
3 -57 10 -85 15 -27 5 -79 12 -115 16 -36 4 -72 8 -80 10 -65 12 -562 29 -573
19z"/>
</g>
</svg>
