<svg xmlns="http://www.w3.org/2000/svg" xmlns:xlink="http://www.w3.org/1999/xlink" width="163.385" height="334.406" viewBox="0 0 163.385 334.406">
  <defs>
    <filter id="Path_24" x="36.274" y="200.755" width="90.987" height="42.981" filterUnits="userSpaceOnUse">
      <feOffset dx="5" dy="5" input="SourceAlpha"/>
      <feGaussianBlur stdDeviation="2.5" result="blur"/>
      <feFlood flood-opacity="0.161"/>
      <feComposite operator="in" in2="blur"/>
      <feComposite in="SourceGraphic"/>
    </filter>
    <filter id="Path_23" x="36.304" y="215.022" width="90.957" height="119.384" filterUnits="userSpaceOnUse">
      <feOffset dx="5" dy="5" input="SourceAlpha"/>
      <feGaussianBlur stdDeviation="2.5" result="blur-2"/>
      <feFlood flood-opacity="0.161"/>
      <feComposite operator="in" in2="blur-2"/>
      <feComposite in="SourceGraphic"/>
    </filter>
    <filter id="Path_25" x="36.22" y="109.765" width="91.107" height="39.148" filterUnits="userSpaceOnUse">
      <feOffset dx="5" dy="5" input="SourceAlpha"/>
      <feGaussianBlur stdDeviation="2.5" result="blur-3"/>
      <feFlood flood-opacity="0.161"/>
      <feComposite operator="in" in2="blur-3"/>
      <feComposite in="SourceGraphic"/>
    </filter>
    <filter id="Ellipse_21" x="95.058" y="0" width="33.209" height="33.209" filterUnits="userSpaceOnUse">
      <feOffset dx="5" dy="5" input="SourceAlpha"/>
      <feGaussianBlur stdDeviation="2.5" result="blur-4"/>
      <feFlood flood-opacity="0.161"/>
      <feComposite operator="in" in2="blur-4"/>
      <feComposite in="SourceGraphic"/>
    </filter>
    <filter id="Ellipse_22" x="60.767" y="41.48" width="64.919" height="64.919" filterUnits="userSpaceOnUse">
      <feOffset dx="5" dy="5" input="SourceAlpha"/>
      <feGaussianBlur stdDeviation="2.5" result="blur-5"/>
      <feFlood flood-opacity="0.161"/>
      <feComposite operator="in" in2="blur-5"/>
      <feComposite in="SourceGraphic"/>
    </filter>
    <filter id="Path_53" x="28.871" y="18.125" width="46.878" height="46.878" filterUnits="userSpaceOnUse">
      <feOffset dx="5" dy="5" input="SourceAlpha"/>
      <feGaussianBlur stdDeviation="2.5" result="blur-6"/>
      <feFlood flood-opacity="0.161"/>
      <feComposite operator="in" in2="blur-6"/>
      <feComposite in="SourceGraphic"/>
    </filter>
    <filter id="Path_26" x="66.541" y="234.771" width="47.535" height="88.111" filterUnits="userSpaceOnUse">
      <feOffset dx="5" dy="5" input="SourceAlpha"/>
      <feGaussianBlur stdDeviation="2.5" result="blur-7"/>
      <feFlood flood-opacity="0.161"/>
      <feComposite operator="in" in2="blur-7"/>
      <feComposite in="SourceGraphic"/>
    </filter>
    <filter id="Path_20" x="0" y="132.831" width="163.385" height="90.532" filterUnits="userSpaceOnUse">
      <feOffset dx="5" dy="5" input="SourceAlpha"/>
      <feGaussianBlur stdDeviation="2.5" result="blur-8"/>
      <feFlood flood-opacity="0.161"/>
      <feComposite operator="in" in2="blur-8"/>
      <feComposite in="SourceGraphic"/>
    </filter>
    <filter id="Path_22" x="27.476" y="95.349" width="108.571" height="29.837" filterUnits="userSpaceOnUse">
      <feOffset dx="5" dy="5" input="SourceAlpha"/>
      <feGaussianBlur stdDeviation="2.5" result="blur-9"/>
      <feFlood flood-opacity="0.161"/>
      <feComposite operator="in" in2="blur-9"/>
      <feComposite in="SourceGraphic"/>
    </filter>
  </defs>
  <g id="Warstwa_1" data-name="Warstwa 1" transform="translate(2.5 2.5)">
    <path id="Path_21" data-name="Path 21" d="M166.171,239.68a28.751,28.751,0,1,1-28.781,28.781A28.751,28.751,0,0,1,166.171,239.68Zm10.338,28.781a10.344,10.344,0,1,0-10.338,10.344A10.345,10.345,0,0,0,176.51,268.461Z" transform="translate(-55.258 -97.842)" fill="#f7f5f2"/>
    <circle id="Ellipse_19" data-name="Ellipse 19" cx="10.344" cy="10.344" r="10.344" transform="translate(100.569 160.291)" fill="#414247"/>
    <circle id="Ellipse_20" data-name="Ellipse 20" cx="10.344" cy="10.344" r="10.344" transform="translate(28.691 160.291)" fill="#484548"/>
    <path id="Path_27" data-name="Path 27" d="M43.811,239.68A28.751,28.751,0,1,1,15.06,268.461,28.751,28.751,0,0,1,43.811,239.68ZM55.5,268.461a10.345,10.345,0,0,0-10.338-10.345,10.082,10.082,0,0,0-1.354.09,10.338,10.338,0,0,0,0,20.5,10.036,10.036,0,0,0,1.354.09A10.338,10.338,0,0,0,55.5,268.461Z" transform="translate(-6.201 -97.842)" fill="#f7f5f2"/>
    <g transform="matrix(1, 0, 0, 1, -2.5, -2.5)" filter="url(#Path_24)">
      <path id="Path_24-2" data-name="Path 24" d="M136.817,345.962v8.122a5.774,5.774,0,0,1-1.348,3.594,9.879,9.879,0,0,1-1.336,1.371h0a12.365,12.365,0,0,1-1.006.779c-.144.108-.3.21-.455.312l-.6.365h-.042c-.1.066-.216.126-.317.186l-.323.18-.306.168c-.234.12-.467.246-.707.359s-.485.234-.737.348l-.647.287-.9.372-.467.18-.311.12-.449.162-.815.276-.653.215-.671.2-.1.03c-.359.108-.707.21-1.078.306l-.2.06-.707.186-.88.228-1.312.3c-.5.114-1,.216-1.515.318-.419.084-.857.174-1.288.246l-.276.054c-.467.084-.94.168-1.42.24s-.833.138-1.252.2-.695.1-1.048.144l-.312.042-.186.03-1.012.126c-.425.054-.851.1-1.282.144s-.928.1-1.4.144l-1.15.1-.881.066-.815.066c-.863.054-1.731.108-2.606.144l-1.162.048h-1.438c-.862,0-1.731.03-2.594.03s-1.731,0-2.594-.03H94.786l-1.162-.048h-.246l-1.2-.06c-.964-.054-1.917-.126-2.869-.2l-1.2-.1c-.455-.048-.91-.09-1.366-.144l-1.282-.144-1.012-.126-.186-.03-.335-.042h-.084c-.317-.036-.6-.078-.934-.126q-.635-.09-1.258-.2-1.518-.243-2.995-.539c-.515-.1-1.024-.2-1.515-.318l-.6-.138-.305-.072-.3-.072-.635-.138-.323-.084-.7-.186-.2-.06c-.359-.1-.719-.2-1.066-.305s-.521-.156-.779-.234l-.653-.216c-.282-.09-.563-.186-.839-.287l-.737-.27q-.234-.078-.467-.18l-.9-.371-.653-.288c-.246-.114-.5-.227-.737-.347l-.7-.36-.306-.168c-.114-.06-.222-.114-.323-.18s-.2-.114-.294-.174h-.048l-.6-.365c-.156-.1-.311-.2-.461-.311a12.265,12.265,0,0,1-1-.779h0a9.912,9.912,0,0,1-1.336-1.372,5.774,5.774,0,0,1-1.348-3.594v-8.188c.443,0,.9.03,1.348.03s.9,0,1.354-.03q.539,0,1.078-.054h.078a8.864,8.864,0,0,0,.892-.072h0a.654.654,0,0,0,.15,0c.341-.03.683-.066,1.012-.108s.713-.09,1.072-.144.635-.1.952-.156l.234-.042c.282-.048.551-.1.827-.162l.389-.084.773-.174,1.042-.263.156-.042.138-.078a41.266,41.266,0,0,1,8.026-3.259,64.749,64.749,0,0,1,18.239-2.5,64.085,64.085,0,0,1,19.245,2.773,41.217,41.217,0,0,1,6.529,2.719l.12.066.126.036c.311.1.629.186.934.27l.389.1.659.162.4.09c.18.048.365.09.545.126l.6.12.6.114c.6.108,1.2.2,1.8.276l.515.066.719.078.6.048c.407.036.8.06,1.2.084h.6c.449,0,.9.03,1.354.03S136.4,345.98,136.817,345.962Z" transform="translate(-22.06 -135.57)" fill="#06a64f"/>
    </g>
    <g transform="matrix(1, 0, 0, 1, -2.5, -2.5)" filter="url(#Path_23)">
      <path id="Path_23-2" data-name="Path 23" d="M136.837,364.3v67.457h0a37.993,37.993,0,0,1-75.957,0h0V364.3a5.774,5.774,0,0,0,1.348,3.594,9.9,9.9,0,0,0,1.336,1.372h0a12.269,12.269,0,0,0,1,.779c.15.108.306.21.461.312l.6.365h.048c.1.06.192.12.294.174s.21.12.323.18l.305.168.7.359c.24.12.491.234.737.347l.653.288.9.371q.234.1.467.18l.737.269c.276.1.557.2.839.288l.653.215c.258.078.515.162.779.234s.707.21,1.066.306l.2.06.7.186.323.084.653.162.3.072.305.072.6.138c.491.114,1,.216,1.515.317.97.2,1.971.377,2.995.539q.6.108,1.258.2c.311.048.6.09.934.126H84l.335.042.186.03,1.012.126,1.282.144c.455.054.91.1,1.366.144l1.2.1c.952.078,1.9.15,2.869.2l1.2.06h.246l1.162.048h1.438c.863,0,1.731.03,2.594.03s1.731,0,2.594-.03h1.438l1.162-.048c.875-.036,1.743-.09,2.606-.144l.815-.066.88-.066,1.15-.1c.467-.042.928-.09,1.4-.144s.857-.09,1.282-.144l1.012-.126.186-.03.312-.042c.353-.042.7-.09,1.048-.144s.839-.126,1.252-.2.952-.156,1.42-.24l.276-.054c.431-.072.868-.162,1.288-.246.515-.1,1.018-.2,1.515-.317l1.312-.3.881-.228.707-.186.2-.06c.371-.1.719-.2,1.078-.305l.1-.03.671-.2.653-.216.815-.276.449-.162.311-.12.467-.18.9-.371.647-.287c.252-.114.5-.228.737-.347s.473-.234.707-.359l.305-.168.323-.18c.1-.06.216-.12.317-.186h.042l.6-.365c.156-.1.311-.2.455-.312a12.361,12.361,0,0,0,1.006-.779h0a9.9,9.9,0,0,0,1.336-1.372A5.775,5.775,0,0,0,136.837,364.3Zm-13.7,71.195c1.2-11.464,0-46.493,0-46.84v-.048a4.726,4.726,0,0,0-9.446,0v41.132a18.018,18.018,0,0,1-17.969,17.969,4.726,4.726,0,0,0,0,9.446C109.577,457.136,121.886,447.433,123.132,435.495Z" transform="translate(-22.08 -146.78)" fill="#1683c6"/>
    </g>
    <g transform="matrix(1, 0, 0, 1, -2.5, -2.5)" filter="url(#Path_25)">
      <path id="Path_25-2" data-name="Path 25" d="M136.857,185.7l-.132,23.682c-.449,0-.9,0-1.354-.036l-73.273-.43H60.75l.132-23.682Z" transform="translate(-22.03 -72.97)" fill="#06a64f"/>
    </g>
    <g transform="matrix(1, 0, 0, 1, -2.5, -2.5)" filter="url(#Ellipse_21)">
      <circle id="Ellipse_21-2" data-name="Ellipse 21" cx="9.105" cy="9.105" r="9.105" transform="translate(97.56 2.5)" fill="#1683c6"/>
    </g>
    <g transform="matrix(1, 0, 0, 1, -2.5, -2.5)" filter="url(#Ellipse_22)">
      <circle id="Ellipse_22-2" data-name="Ellipse 22" cx="24.96" cy="24.96" r="24.96" transform="translate(63.27 43.98)" fill="#1683c6"/>
    </g>
    <g transform="matrix(1, 0, 0, 1, -2.5, -2.5)" filter="url(#Path_53)">
      <path id="Path_53-2" data-name="Path 53" d="M64.409,30.26A15.939,15.939,0,1,1,48.47,46.2,15.939,15.939,0,0,1,64.409,30.26Z" transform="translate(-17.1 -9.63)" fill="#1683c6"/>
    </g>
    <g transform="matrix(1, 0, 0, 1, -2.5, -2.5)" filter="url(#Path_26)">
      <path id="Path_26-2" data-name="Path 26" d="M143.364,401.9c0,.348,1.2,35.376,0,46.84-1.246,11.938-13.555,21.641-27.445,21.641a4.726,4.726,0,0,1,0-9.446,18.017,18.017,0,0,0,17.969-17.969V401.829a4.726,4.726,0,0,1,9.446,0Z" transform="translate(-42.32 -160)" fill="#f7f5f2"/>
    </g>
    <g transform="matrix(1, 0, 0, 1, -2.5, -2.5)" filter="url(#Path_20)">
      <path id="Path_20-2" data-name="Path 20" d="M112.531,224.69a37.772,37.772,0,0,1,0,75.472c-.443,0-.9.03-1.348.03s-.9,0-1.354-.03h-.6c-.407,0-.8-.048-1.2-.084l-.6-.048-.719-.078-.515-.066c-.6-.078-1.2-.168-1.8-.276l-.6-.114-.6-.12c-.18-.036-.365-.078-.545-.126l-.4-.09-.659-.162-.389-.1c-.305-.084-.6-.174-.934-.27l-.126-.036-.12-.066a41.213,41.213,0,0,0-6.487-2.707,64.084,64.084,0,0,0-19.239-2.8,64.751,64.751,0,0,0-18.245,2.528,41.275,41.275,0,0,0-8.038,3.241l-.138.078-.156.042-1.042.263-.773.174-.389.084c-.276.06-.545.114-.827.162l-.234.042c-.317.06-.635.108-.952.156s-.713.108-1.072.144-.671.078-1.012.108a.621.621,0,0,1-.15,0h0c-.3.03-.6.054-.892.072h-.078q-.539.036-1.078.054c-.455,0-.9.03-1.354.03s-.9,0-1.348-.03a37.766,37.766,0,0,1,0-75.472c.443,0,.9-.03,1.348-.03h73.3C111.633,224.66,112.118,224.672,112.531,224.69Zm27.427,37.736a28.745,28.745,0,1,0,0,.012Zm-73.3,0a28.745,28.745,0,1,0,0,.012Z" transform="translate(2.23 -89.33)" fill="#1683c6"/>
    </g>
    <g transform="matrix(1, 0, 0, 1, -2.5, -2.5)" filter="url(#Path_22)">
      <path id="Path_22-2" data-name="Path 22" d="M132.5,160.85a7.421,7.421,0,0,1,0,14.837H53.352a7.421,7.421,0,0,1,0-14.837Z" transform="translate(-16.17 -63)" fill="#1683c6"/>
    </g>
  </g>
</svg>
